<svg xmlns="http://www.w3.org/2000/svg" viewBox="0 0 417.002 306.871">
  <g id="Group_117" data-name="Group 117" transform="translate(0 -175.871)">
    <path id="Path_50" data-name="Path 50" d="M555.734,405.491a30.281,30.281,0,0,0-24.18,12.023,19.937,19.937,0,0,0-27.818,18.309h82.331a30.332,30.332,0,0,0-30.333-30.333Z" transform="translate(-270.642 -208.629)" fill="#e6e6e6"/>
    <path id="Path_51" data-name="Path 51" d="M669.467,384.5H309.134a18.2,18.2,0,0,0-18.177,18.177V673.194a18.2,18.2,0,0,0,18.177,18.177H669.467a18.2,18.2,0,0,0,18.177-18.177V402.677A18.2,18.2,0,0,0,669.467,384.5Zm16.038,288.694a16.058,16.058,0,0,1-16.039,16.039H309.134A16.058,16.058,0,0,1,293.1,673.194V402.677a16.058,16.058,0,0,1,16.039-16.038H669.467a16.058,16.058,0,0,1,16.038,16.039Z" transform="translate(-270.642 -208.629)" fill="#828282"/>
    <circle id="Ellipse_25" data-name="Ellipse 25" cx="80.727" cy="80.727" r="80.727" transform="translate(0 209.017)" fill="#95bdf4"/>
    <path id="Path_52" data-name="Path 52" d="M687.644,613.391V635.77H290.957V613.284L293.1,610.2l125.764-181.1a6.2,6.2,0,0,1,10.179,0l84.341,121.433,60.037-85.689a6.2,6.2,0,0,1,10.158,0l101.93,145.48Z" transform="translate(-270.642 -208.629)" fill="#828282"/>
    <path id="Path_53" data-name="Path 53" d="M378.1,661.432H315.015a1.069,1.069,0,0,1,0-2.139H378.1a1.069,1.069,0,1,1,0,2.138Z" transform="translate(-270.642 -208.629)" fill="#828282"/>
    <path id="Path_54" data-name="Path 54" d="M473.262,661.432H410.177a1.069,1.069,0,0,1,0-2.139h63.085a1.069,1.069,0,1,1,0,2.138Z" transform="translate(-270.642 -208.629)" fill="#828282"/>
    <path id="Path_55" data-name="Path 55" d="M568.424,661.432H505.339a1.069,1.069,0,0,1,0-2.139h63.085a1.069,1.069,0,0,1,0,2.138Z" transform="translate(-270.642 -208.629)" fill="#828282"/>
    <path id="Path_56" data-name="Path 56" d="M663.586,661.432H600.5a1.069,1.069,0,0,1,0-2.139h63.085a1.069,1.069,0,1,1,0,2.138Z" transform="translate(-270.642 -208.629)" fill="#828282"/>
    <path id="Path_57" data-name="Path 57" d="M490.9,456.139a37.359,37.359,0,0,0-29.833,14.834,24.6,24.6,0,0,0-34.321,22.589H528.327A37.423,37.423,0,0,0,490.9,456.139Z" transform="translate(-270.642 -208.629)" fill="#ccc"/>
  </g>
</svg>
